<svg xmlns="http://www.w3.org/2000/svg" xmlns:xlink="http://www.w3.org/1999/xlink" width="598" height="1247" viewBox="0 0 598 1247"><defs><clipPath id="clip-path"><rect id="Rectangle_3158" data-name="Rectangle 3158" width="598" height="1247" transform="translate(1312)" fill="#fff" stroke="#707070" stroke-width="1"></rect></clipPath><linearGradient id="linear-gradient" x1="0.995" y1="0.46" x2="0.007" y2="0.006" gradientUnits="objectBoundingBox"><stop offset="0" stop-color="#225794"></stop><stop offset="0.397" stop-color="#225895"></stop><stop offset="0.585" stop-color="#7148b2"></stop><stop offset="1" stop-color="#b90e31"></stop></linearGradient></defs><g id="arrow-how-we-help" transform="translate(-1312)" clip-path="url(#clip-path)"><g id="Group_17901" data-name="Group 17901" transform="translate(1299.498 -143.205)" opacity="0.25"><path id="Path_18959" data-name="Path 18959" d="M350.333,1085.27a44.023,44.023,0,0,0,31.125-12.892L773.566,680.264l237.857,246.178a44.014,44.014,0,0,0,75.668-30.584V44.016A44.016,44.016,0,0,0,1043.076,0H190.329A44.015,44.015,0,0,0,159.2,75.139l243.01,243.019L12.891,707.483a44.015,44.015,0,0,0-.006,62.24l22.832,22.844,263.363,259.666,20.115,20.133a44.025,44.025,0,0,0,31.129,12.9ZM774.107,573.46a44.017,44.017,0,0,0-31.125,12.892L350.265,979.075,106.317,738.553,495.585,349.282a44.018,44.018,0,0,0,0-62.247l-199-199H999.06V786.955l-193.3-200.063a44.013,44.013,0,0,0-31.275-13.43Z" transform="translate(768.689 1536.091) rotate(-135)" opacity="0.387" fill="url(#linear-gradient)"></path><ellipse id="Ellipse_279" data-name="Ellipse 279" cx="52.819" cy="52.819" rx="52.819" ry="52.819" transform="translate(17.312 715.443)" fill="#174884"></ellipse></g></g></svg>